<svg id="Layer" enable-background="new 0 0 64 64" height="512" viewBox="0 0 64 64" width="512" xmlns="http://www.w3.org/2000/svg"><circle cx="32" cy="32" fill="#4dd0e1" r="22"/><g fill="#012e52"><path d="m32 8c-13.234 0-24 10.767-24 24s10.766 24 24 24 24-10.767 24-24-10.766-24-24-24zm0 44c-11.028 0-20-8.972-20-20s8.972-20 20-20 20 8.972 20 20-8.972 20-20 20z"/><path d="m42 30c-1.104 0-2 .896-2 2v4c0 1.103-.897 2-2 2h-12c-1.103 0-2-.897-2-2v-4c0-1.104-.896-2-2-2s-2 .896-2 2v4c0 3.309 2.691 6 6 6h12c3.309 0 6-2.691 6-6v-4c0-1.104-.896-2-2-2z"/><path d="m26.791 27.593c.879.668 2.135.497 2.802-.383l.407-.536v7.326c0 1.104.896 2 2 2s2-.896 2-2v-7.326l.407.536c.394.518.99.79 1.594.79.421 0 .847-.133 1.208-.407.88-.668 1.051-1.923.383-2.803l-2.59-3.41c-.052-.068-.109-.134-.17-.195-.756-.766-1.762-1.188-2.833-1.188s-2.077.422-2.833 1.188c-.061.062-.118.127-.17.195l-2.59 3.41c-.667.88-.495 2.135.385 2.803z"/></g></svg>